<svg width="64" height="64" viewBox="0 0 64 64" fill="none" xmlns="http://www.w3.org/2000/svg">
<path d="M32 12C24 12 19.2 16.8 17.6 26.4C20.8 21.6 24.8 20 29.6 21.6C32.24 22.48 34.08 24.32 36.16 26.4C39.68 29.92 43.84 34.08 52 34.08C60 34.08 64.8 29.28 66.4 19.68C63.2 24.48 59.2 26.08 54.4 24.48C51.76 23.6 49.92 21.76 47.84 19.68C44.32 16.16 40.16 12 32 12ZM17.6 34.08C9.6 34.08 4.8 38.88 3.2 48.48C6.4 43.68 10.4 42.08 15.2 43.68C17.84 44.56 19.68 46.4 21.76 48.48C25.28 52 29.44 56.16 37.6 56.16C45.6 56.16 50.4 51.36 52 41.76C48.8 46.56 44.8 48.16 40 46.56C37.36 45.68 35.52 43.84 33.44 41.76C29.92 38.24 25.76 34.08 17.6 34.08Z" fill="#06B6D4"/>
</svg> 